<svg width="525" height="525" viewBox="0 0 525 525" fill="none" xmlns="http://www.w3.org/2000/svg">
<path fill-rule="evenodd" clip-rule="evenodd" d="M500 1.28689e-05L275 1.01715e-05C261.193 1.01715e-05 250 11.1929 250 25C250 38.8071 261.193 50 275 50H439.645L232.322 257.322L267.678 292.678L475 85.3554V250C475 263.807 486.193 275 500 275C513.807 275 525 263.807 525 250V25C525 11.1929 513.807 2.36585e-05 500 1.28689e-05ZM150 75H200V25H150C67.1573 25 0 92.1573 0 175V375C0 457.843 67.1573 525 150 525H350C432.843 525 500 457.843 500 375V325H450V375C450 430.228 405.228 475 350 475H150C94.7715 475 50 430.228 50 375V175C50 119.772 94.7715 75 150 75Z" fill="black"/>
</svg>
