<?xml version="1.0" encoding="UTF-8" standalone="no"?>
<svg
   width="360"
   height="337"
   fill="none"
   viewBox="0 0 360 337"
   version="1.1"
   id="svg936"
   sodipodi:docname="Ttile.svg"
   inkscape:version="1.1.2 (b8e25be833, 2022-02-05)"
   xmlns:inkscape="http://www.inkscape.org/namespaces/inkscape"
   xmlns:sodipodi="http://sodipodi.sourceforge.net/DTD/sodipodi-0.dtd"
   xmlns="http://www.w3.org/2000/svg"
   xmlns:svg="http://www.w3.org/2000/svg">
  <sodipodi:namedview
     id="namedview938"
     pagecolor="#505050"
     bordercolor="#ffffff"
     borderopacity="1"
     inkscape:pageshadow="0"
     inkscape:pageopacity="0"
     inkscape:pagecheckerboard="1"
     showgrid="false"
     fit-margin-top="0"
     fit-margin-left="0"
     fit-margin-right="0"
     fit-margin-bottom="0"
     inkscape:zoom="1.1216617"
     inkscape:cx="426.59921"
     inkscape:cy="155.57275"
     inkscape:window-width="1920"
     inkscape:window-height="991"
     inkscape:window-x="-9"
     inkscape:window-y="-9"
     inkscape:window-maximized="1"
     inkscape:current-layer="svg936" />
  <path
     fill="url(#paint0_linear_27_21)"
     d="m 0,0 h 360 v 317 c 0,11.046 -8.954,20 -20,20 H 20 C 8.954,337 0,328.046 0,317 Z"
     id="path892"
     style="fill:url(#paint0_linear_27_21)" />
  <path
     id="path894"
     style="fill:url(#paint1_linear_27_21)"
     d="m 289.90625,52.417969 c -3.062,0.002 -6.02609,1.253156 -8.37109,3.535156 -2.345,2.282 -3.92308,5.448359 -4.45508,8.943359 a 18.828,18.828 0 0 0 -6.87305,-7.537109 18.412,18.412 0 0 0 -16.87695,-1.34375 18.633,18.633 0 0 0 -6.05274,4.103516 18.955,18.955 0 0 0 -4.04492,6.144531 19.156,19.156 0 0 0 1.11328,16.751953 c -4.246,2.022 -7.87378,5.428922 -10.42578,9.794922 -2.553,4.365 -3.91692,9.494233 -3.91992,14.740233 0,7.057 2.46089,13.82445 6.83789,18.81445 4.378,4.989 10.31486,7.79297 16.50586,7.79297 a 20.72,20.72 0 0 0 6.95508,-1.21289 c 2.074,3.289 5.01978,6.01521 8.55078,7.90821 a 24.58,24.58 0 0 0 11.58789,2.89257 c 5.492,-0.004 10.80848,-1.82172 15.02148,-5.13671 4.213,-3.315 7.0543,-7.91696 8.0293,-13.00196 1.242,0.261 2.50072,0.39439 3.76172,0.40039 3.258,-0.001 6.47316,-0.86062 9.41016,-2.51562 2.937,-1.655 5.51864,-4.06092 7.55664,-7.04492 1.354,0.613 2.7827,0.92864 4.2207,0.93164 a 10.282,10.282 0 0 0 4.21875,-0.92969 c 0.703,4.696 2.74825,8.94486 5.78125,12.00586 3.033,3.061 6.8595,4.74114 10.8125,4.74414 2.572,-0.001 5.10992,-0.71308 7.41992,-2.08008 0.50672,2.64845 1.67475,5.06524 3.33008,7.03906 V 77.84375 c -0.66376,-2.874071 -1.9951,-5.543148 -3.97656,-7.671875 -2.865,-3.08 -6.75169,-4.810547 -10.80469,-4.810547 -2.77,0.001 -5.48733,0.808797 -7.86133,2.341797 -2.375,1.532 -4.31714,3.728469 -5.61914,6.355469 -1.473,-1.484 -3.16356,-2.580516 -4.97656,-3.228516 0.116,-0.66 0.17378,-1.325187 0.17578,-1.992187 0,-1.716 -0.38014,-3.415 -1.11914,-5 a 13.083,13.083 0 0 0 -3.19141,-4.238282 14.975,14.975 0 0 0 -4.77539,-2.832031 16.35,16.35 0 0 0 -5.63281,-0.996094 16.324,16.324 0 0 0 -5.99805,1.138672 c -1.887,0.75 -3.57508,1.841985 -4.95508,3.208985 -1.13299,-2.337 -2.78329,-4.280766 -4.77929,-5.634766 -1.997,-1.354 -4.26708,-2.066406 -6.58008,-2.066406 z" />
  <path
     fill="url(#paint2_linear_27_21)"
     d="m 134.656,10.228 c -4.897,0.002 -9.615,1.934 -13.226,5.414 -3.61,3.48 -5.852,8.256 -6.282,13.388 -3.146,-2.714 -6.955,-4.18 -10.867,-4.18 -3.756,0.003 -7.42,1.356 -10.494,3.876 -3.074,2.519 -5.409,6.082 -6.686,10.205 -2.64,-1.993 -5.727,-3.054 -8.882,-3.054 -4.302,0 -8.427,1.97 -11.469,5.476 -3.04,3.506 -4.75,8.262 -4.75,13.22 0,4.96 1.709,9.715 4.75,13.222 3.042,3.506 7.167,5.476 11.469,5.476 0.16,-0.004 0.32,-0.01 0.48,-0.02 1.152,4.565 3.565,8.579 6.877,11.436 3.311,2.857 7.342,4.403 11.487,4.405 4.439,-0.004 8.739,-1.778 12.163,-5.02 a 19.085,19.085 0 0 0 6.846,7.008 18.257,18.257 0 0 0 9.303,2.567 c 4.159,-0.003 8.199,-1.438 11.485,-4.079 3.285,-2.641 5.63,-6.338 6.664,-10.51 7.381,-0.74 14.152,-3.46 19.056,-7.655 4.904,-4.194 7.607,-9.578 7.608,-15.151 -10e-4,-4.427 -1.708,-8.76 -4.916,-12.48 0.151,-1.018 0.228,-2.058 0.228,-3.101 0,-3.815 -1.017,-7.473 -2.828,-10.17 -1.811,-2.697 -4.267,-4.213 -6.828,-4.213 -0.677,0 -1.352,0.107 -2.014,0.318 -0.924,-4.63 -3.334,-8.786 -6.825,-11.768 -3.492,-2.982 -7.852,-4.61 -12.349,-4.61 z"
     id="path896"
     style="fill:url(#paint2_linear_27_21)" />
  <path
     fill="#253764"
     d="m 30.992,104.115 c 1.969,0 3.475,0.551 4.518,1.653 1.043,1.113 1.564,2.695 1.564,4.746 0,2.05 -0.515,3.644 -1.547,4.781 -1.043,1.137 -2.53,1.705 -4.465,1.705 h -3.304 v -12.885 z m -0.14,11.549 c 1.5,0 2.63,-0.445 3.392,-1.336 0.762,-0.89 1.143,-2.162 1.143,-3.814 0,-1.653 -0.381,-2.912 -1.143,-3.78 -0.762,-0.867 -1.892,-1.3 -3.392,-1.3 h -1.46 v 10.23 z m 10.16,-8.209 0.14,1.74 h 0.053 c 0.34,-0.621 0.744,-1.107 1.213,-1.459 0.469,-0.351 0.967,-0.527 1.494,-0.527 0.41,0 0.75,0.07 1.02,0.211 l -0.3,1.406 a 2.554,2.554 0 0 0 -0.93,-0.158 c -0.446,0 -0.886,0.176 -1.32,0.527 -0.433,0.352 -0.796,0.909 -1.089,1.67 V 117 h -1.6 v -9.545 z m 6.328,9.774 c -0.328,0 -0.604,-0.118 -0.826,-0.352 -0.223,-0.223 -0.334,-0.51 -0.334,-0.861 0,-0.352 0.117,-0.651 0.351,-0.897 0.223,-0.234 0.492,-0.351 0.809,-0.351 0.316,0 0.592,0.117 0.826,0.351 0.223,0.246 0.334,0.545 0.334,0.897 0,0.351 -0.111,0.638 -0.334,0.861 a 1.096,1.096 0 0 1 -0.826,0.352 z m 16.787,0 c -1.793,0 -3.299,-0.639 -4.518,-1.917 l 0.967,-1.107 c 1.031,1.066 2.22,1.6 3.568,1.6 0.833,0 1.495,-0.194 1.987,-0.58 0.48,-0.375 0.72,-0.885 0.72,-1.53 a 2.22,2.22 0 0 0 -0.14,-0.826 1.562,1.562 0 0 0 -0.492,-0.633 7.66,7.66 0 0 0 -0.65,-0.422 30.906,30.906 0 0 0 -0.862,-0.404 l -1.863,-0.808 c -1.746,-0.75 -2.62,-1.852 -2.62,-3.305 0,-0.996 0.387,-1.817 1.16,-2.461 0.763,-0.645 1.73,-0.967 2.901,-0.967 1.5,0 2.766,0.533 3.797,1.6 l -0.861,1.037 c -0.868,-0.809 -1.846,-1.213 -2.936,-1.213 -0.726,0 -1.306,0.17 -1.74,0.51 a 1.682,1.682 0 0 0 -0.668,1.388 c 0,0.235 0.047,0.452 0.14,0.651 0.094,0.211 0.2,0.381 0.317,0.51 0.105,0.14 0.275,0.275 0.51,0.404 0.222,0.14 0.404,0.24 0.545,0.299 0.129,0.07 0.334,0.164 0.615,0.281 l 1.846,0.791 c 0.855,0.375 1.511,0.82 1.968,1.336 0.457,0.516 0.686,1.219 0.686,2.109 0,1.043 -0.398,1.91 -1.195,2.602 -0.809,0.703 -1.87,1.055 -3.182,1.055 z m 8.367,-14.221 v 3.832 l -0.053,1.969 c 1.067,-1.067 2.121,-1.6 3.165,-1.6 1.945,0 2.917,1.248 2.917,3.744 V 117 h -1.6 v -5.836 c 0,-0.891 -0.14,-1.541 -0.421,-1.951 -0.293,-0.399 -0.756,-0.598 -1.389,-0.598 -0.469,0 -0.89,0.112 -1.265,0.334 -0.375,0.223 -0.826,0.598 -1.354,1.125 V 117 h -1.6 v -13.992 z m 9.879,2.478 c -0.316,0 -0.58,-0.099 -0.791,-0.298 a 0.978,0.978 0 0 1 -0.316,-0.739 c 0,-0.316 0.105,-0.568 0.316,-0.756 0.2,-0.187 0.463,-0.281 0.791,-0.281 0.328,0 0.598,0.094 0.809,0.281 0.199,0.188 0.299,0.44 0.299,0.756 a 0.978,0.978 0 0 1 -0.317,0.739 1.107,1.107 0 0 1 -0.791,0.298 z m 0.791,1.969 V 117 h -1.6 v -9.545 z m 4.817,-4.447 v 9.492 h 0.035 l 4.095,-5.045 h 1.776 l -3.2,3.832 3.623,5.713 h -1.74 l -2.796,-4.605 -1.792,2.091 V 117 h -1.583 v -13.992 h 1.583 z m 10.617,14.221 c -1.313,0 -2.502,-0.44 -3.569,-1.319 l 0.791,-1.055 c 0.926,0.75 1.87,1.125 2.83,1.125 0.61,0 1.078,-0.14 1.407,-0.421 0.316,-0.282 0.474,-0.639 0.474,-1.073 0,-0.304 -0.123,-0.58 -0.369,-0.826 a 2.712,2.712 0 0 0 -0.738,-0.545 14.72,14.72 0 0 0 -1.072,-0.439 c -0.41,-0.153 -0.75,-0.293 -1.02,-0.422 a 5.173,5.173 0 0 1 -0.879,-0.527 2.007,2.007 0 0 1 -0.703,-0.774 2.152,2.152 0 0 1 -0.246,-1.037 c 0,-0.785 0.299,-1.436 0.896,-1.951 0.586,-0.504 1.383,-0.756 2.391,-0.756 1.055,0 2.045,0.357 2.971,1.072 l -0.774,1.037 c -0.761,-0.562 -1.494,-0.843 -2.197,-0.843 -0.563,0 -0.99,0.129 -1.283,0.386 a 1.234,1.234 0 0 0 -0.457,0.985 c 0,0.269 0.111,0.509 0.334,0.72 0.21,0.223 0.416,0.375 0.615,0.457 0.188,0.094 0.516,0.229 0.984,0.405 0.082,0.035 0.141,0.058 0.176,0.07 0.387,0.141 0.674,0.252 0.861,0.334 0.188,0.082 0.44,0.211 0.756,0.387 0.305,0.176 0.534,0.351 0.686,0.527 0.152,0.176 0.293,0.404 0.422,0.686 0.129,0.293 0.193,0.615 0.193,0.966 0,0.809 -0.305,1.483 -0.914,2.022 -0.621,0.539 -1.477,0.809 -2.566,0.809 z m 7.33,-14.221 v 3.832 l -0.053,1.969 c 1.066,-1.067 2.121,-1.6 3.164,-1.6 1.945,0 2.918,1.248 2.918,3.744 V 117 h -1.6 v -5.836 c 0,-0.891 -0.14,-1.541 -0.421,-1.951 -0.293,-0.399 -0.756,-0.598 -1.389,-0.598 -0.469,0 -0.891,0.112 -1.266,0.334 -0.375,0.223 -0.826,0.598 -1.353,1.125 V 117 h -1.6 v -13.992 z m 11.267,14.221 c -0.82,0 -1.488,-0.241 -2.004,-0.721 -0.527,-0.481 -0.791,-1.143 -0.791,-1.987 0,-1.031 0.469,-1.828 1.407,-2.39 0.925,-0.551 2.414,-0.943 4.464,-1.178 0,-1.605 -0.656,-2.408 -1.968,-2.408 -0.903,0 -1.858,0.34 -2.865,1.019 l -0.633,-1.107 c 1.3,-0.832 2.554,-1.248 3.761,-1.248 1.125,0 1.957,0.346 2.496,1.037 0.54,0.692 0.809,1.652 0.809,2.883 V 117 h -1.318 l -0.141,-1.143 h -0.053 c -1.101,0.914 -2.156,1.372 -3.164,1.372 z m 0.457,-1.284 c 0.797,0 1.67,-0.422 2.619,-1.265 v -2.672 c -1.558,0.187 -2.666,0.474 -3.322,0.861 -0.656,0.387 -0.984,0.902 -0.984,1.547 0,0.516 0.158,0.896 0.474,1.143 0.305,0.257 0.709,0.386 1.213,0.386 z m 8.578,-8.49 0.141,1.371 h 0.053 c 1.101,-1.078 2.168,-1.617 3.199,-1.617 1.945,0 2.918,1.248 2.918,3.744 V 117 h -1.6 v -5.836 c 0,-0.891 -0.14,-1.541 -0.421,-1.951 -0.293,-0.399 -0.756,-0.598 -1.389,-0.598 -0.469,0 -0.891,0.112 -1.266,0.334 -0.375,0.223 -0.826,0.598 -1.353,1.125 V 117 h -1.6 v -9.545 z m 22.237,-3.34 c 3.222,0 4.834,1.26 4.834,3.78 0,1.324 -0.422,2.32 -1.266,2.988 -0.855,0.668 -2.015,1.002 -3.48,1.002 h -2.127 V 117 h -1.635 v -12.885 z m -0.123,6.451 c 1.136,0 1.98,-0.216 2.531,-0.65 0.539,-0.434 0.809,-1.107 0.809,-2.021 0,-0.903 -0.276,-1.541 -0.827,-1.916 -0.55,-0.364 -1.412,-0.545 -2.584,-0.545 h -1.845 v 5.132 z m 8.736,-3.111 0.141,1.74 h 0.052 c 0.34,-0.621 0.745,-1.107 1.213,-1.459 0.469,-0.351 0.967,-0.527 1.494,-0.527 0.411,0 0.75,0.07 1.02,0.211 l -0.299,1.406 a 2.551,2.551 0 0 0 -0.931,-0.158 c -0.446,0 -0.885,0.176 -1.319,0.527 -0.433,0.352 -0.797,0.909 -1.09,1.67 V 117 h -1.599 v -9.545 z m 7.699,9.774 c -0.82,0 -1.488,-0.241 -2.004,-0.721 -0.527,-0.481 -0.791,-1.143 -0.791,-1.987 0,-1.031 0.469,-1.828 1.407,-2.39 0.925,-0.551 2.414,-0.943 4.464,-1.178 0,-1.605 -0.656,-2.408 -1.968,-2.408 -0.903,0 -1.858,0.34 -2.866,1.019 l -0.632,-1.107 c 1.3,-0.832 2.554,-1.248 3.761,-1.248 1.125,0 1.957,0.346 2.496,1.037 0.54,0.692 0.809,1.652 0.809,2.883 V 117 h -1.318 l -0.141,-1.143 h -0.053 c -1.101,0.914 -2.156,1.372 -3.164,1.372 z m 0.457,-1.284 c 0.797,0 1.67,-0.422 2.619,-1.265 v -2.672 c -1.558,0.187 -2.666,0.474 -3.322,0.861 -0.656,0.387 -0.984,0.902 -0.984,1.547 0,0.516 0.158,0.896 0.474,1.143 0.305,0.257 0.709,0.386 1.213,0.386 z m 9.756,1.284 c -1.312,0 -2.502,-0.44 -3.568,-1.319 l 0.791,-1.055 c 0.926,0.75 1.869,1.125 2.83,1.125 0.609,0 1.078,-0.14 1.406,-0.421 0.317,-0.282 0.475,-0.639 0.475,-1.073 0,-0.304 -0.123,-0.58 -0.369,-0.826 a 2.716,2.716 0 0 0 -0.739,-0.545 14.632,14.632 0 0 0 -1.072,-0.439 c -0.41,-0.153 -0.75,-0.293 -1.019,-0.422 a 5.116,5.116 0 0 1 -0.879,-0.527 2,2 0 0 1 -0.703,-0.774 2.142,2.142 0 0 1 -0.247,-1.037 c 0,-0.785 0.299,-1.436 0.897,-1.951 0.586,-0.504 1.383,-0.756 2.391,-0.756 1.054,0 2.044,0.357 2.97,1.072 l -0.773,1.037 c -0.762,-0.562 -1.494,-0.843 -2.197,-0.843 -0.563,0 -0.991,0.129 -1.284,0.386 a 1.236,1.236 0 0 0 -0.457,0.985 c 0,0.269 0.112,0.509 0.334,0.72 0.211,0.223 0.416,0.375 0.616,0.457 0.187,0.094 0.515,0.229 0.984,0.405 0.082,0.035 0.141,0.058 0.176,0.07 0.386,0.141 0.674,0.252 0.861,0.334 0.188,0.082 0.439,0.211 0.756,0.387 0.305,0.176 0.533,0.351 0.685,0.527 0.153,0.176 0.293,0.404 0.422,0.686 0.129,0.293 0.194,0.615 0.194,0.966 0,0.809 -0.305,1.483 -0.914,2.022 -0.621,0.539 -1.477,0.809 -2.567,0.809 z m 7.928,0 c -0.82,0 -1.488,-0.241 -2.004,-0.721 -0.527,-0.481 -0.791,-1.143 -0.791,-1.987 0,-1.031 0.469,-1.828 1.406,-2.39 0.926,-0.551 2.414,-0.943 4.465,-1.178 0,-1.605 -0.656,-2.408 -1.969,-2.408 -0.902,0 -1.857,0.34 -2.865,1.019 l -0.633,-1.107 c 1.301,-0.832 2.555,-1.248 3.762,-1.248 1.125,0 1.957,0.346 2.496,1.037 0.539,0.692 0.809,1.652 0.809,2.883 V 117 h -1.319 l -0.14,-1.143 h -0.053 c -1.102,0.914 -2.156,1.372 -3.164,1.372 z m 0.457,-1.284 c 0.797,0 1.67,-0.422 2.619,-1.265 v -2.672 c -1.558,0.187 -2.666,0.474 -3.322,0.861 -0.656,0.387 -0.985,0.902 -0.985,1.547 0,0.516 0.159,0.896 0.475,1.143 0.305,0.257 0.709,0.386 1.213,0.386 z m 8.578,-8.49 0.141,1.74 h 0.052 c 0.34,-0.621 0.745,-1.107 1.213,-1.459 0.469,-0.351 0.967,-0.527 1.494,-0.527 0.411,0 0.75,0.07 1.02,0.211 l -0.299,1.406 a 2.551,2.551 0 0 0 -0.931,-0.158 c -0.446,0 -0.885,0.176 -1.319,0.527 -0.433,0.352 -0.797,0.909 -1.09,1.67 V 117 h -1.599 v -9.545 z m 7.699,9.774 c -0.82,0 -1.488,-0.241 -2.004,-0.721 -0.527,-0.481 -0.791,-1.143 -0.791,-1.987 0,-1.031 0.469,-1.828 1.407,-2.39 0.925,-0.551 2.414,-0.943 4.464,-1.178 0,-1.605 -0.656,-2.408 -1.968,-2.408 -0.903,0 -1.858,0.34 -2.866,1.019 l -0.632,-1.107 c 1.3,-0.832 2.554,-1.248 3.761,-1.248 1.125,0 1.957,0.346 2.496,1.037 0.54,0.692 0.809,1.652 0.809,2.883 V 117 h -1.318 l -0.141,-1.143 h -0.053 c -1.101,0.914 -2.156,1.372 -3.164,1.372 z m 0.457,-1.284 c 0.797,0 1.67,-0.422 2.619,-1.265 v -2.672 c -1.558,0.187 -2.666,0.474 -3.322,0.861 -0.656,0.387 -0.984,0.902 -0.984,1.547 0,0.516 0.158,0.896 0.474,1.143 0.305,0.257 0.709,0.386 1.213,0.386 z m 8.842,-12.937 v 9.492 h 0.035 l 4.096,-5.045 h 1.775 l -3.199,3.832 3.621,5.713 h -1.74 l -2.795,-4.605 -1.793,2.091 V 117 h -1.582 v -13.992 z m 19.231,1.107 2.478,6.891 c 0.399,1.195 0.703,2.092 0.914,2.689 h 0.088 c 0.094,-0.304 0.24,-0.756 0.44,-1.353 0.199,-0.61 0.345,-1.055 0.439,-1.336 l 2.461,-6.891 h 1.969 V 117 h -1.53 v -7.137 c 0,-0.726 0.071,-1.992 0.211,-3.797 h -0.07 l -1.02,2.936 -2.443,6.697 h -1.09 l -2.443,-6.697 -1.02,-2.936 h -0.07 c 0.129,2.063 0.193,3.329 0.193,3.797 V 117 h -1.476 v -12.885 z m 14.361,13.114 c -0.82,0 -1.488,-0.241 -2.004,-0.721 -0.527,-0.481 -0.791,-1.143 -0.791,-1.987 0,-1.031 0.469,-1.828 1.406,-2.39 0.926,-0.551 2.414,-0.943 4.465,-1.178 0,-1.605 -0.656,-2.408 -1.969,-2.408 -0.902,0 -1.857,0.34 -2.865,1.019 l -0.633,-1.107 c 1.301,-0.832 2.555,-1.248 3.762,-1.248 1.125,0 1.957,0.346 2.496,1.037 0.539,0.692 0.809,1.652 0.809,2.883 V 117 h -1.319 l -0.14,-1.143 h -0.053 c -1.102,0.914 -2.156,1.372 -3.164,1.372 z m 0.457,-1.284 c 0.797,0 1.67,-0.422 2.619,-1.265 v -2.672 c -1.559,0.187 -2.666,0.474 -3.322,0.861 -0.656,0.387 -0.985,0.902 -0.985,1.547 0,0.516 0.159,0.896 0.475,1.143 0.305,0.257 0.709,0.386 1.213,0.386 z m 8.578,-8.49 0.141,1.371 h 0.052 c 1.102,-1.078 2.168,-1.617 3.2,-1.617 1.945,0 2.918,1.248 2.918,3.744 V 117 h -1.6 v -5.836 c 0,-0.891 -0.141,-1.541 -0.422,-1.951 -0.293,-0.399 -0.756,-0.598 -1.389,-0.598 -0.468,0 -0.89,0.112 -1.265,0.334 -0.375,0.223 -0.826,0.598 -1.354,1.125 V 117 h -1.599 v -9.545 z m 12.674,9.774 c -1.207,0 -2.162,-0.44 -2.865,-1.319 -0.715,-0.879 -1.073,-2.103 -1.073,-3.674 0,-1.5 0.405,-2.713 1.213,-3.638 0.809,-0.926 1.782,-1.389 2.918,-1.389 0.528,0 0.991,0.088 1.389,0.264 0.398,0.187 0.832,0.474 1.301,0.861 l -0.088,-1.652 v -3.674 h 1.599 V 117 h -1.3 l -0.159,-1.125 h -0.035 c -0.925,0.902 -1.892,1.354 -2.9,1.354 z m 0.351,-1.336 c 0.833,0 1.647,-0.44 2.444,-1.319 v -5.01 c -0.75,-0.668 -1.524,-1.002 -2.32,-1.002 -0.786,0 -1.442,0.34 -1.969,1.02 -0.528,0.68 -0.791,1.559 -0.791,2.637 0,1.16 0.228,2.062 0.685,2.707 0.457,0.644 1.108,0.967 1.951,0.967 z m 9.493,1.336 c -0.821,0 -1.489,-0.241 -2.004,-0.721 -0.528,-0.481 -0.791,-1.143 -0.791,-1.987 0,-1.031 0.468,-1.828 1.406,-2.39 0.926,-0.551 2.414,-0.943 4.465,-1.178 0,-1.605 -0.656,-2.408 -1.969,-2.408 -0.902,0 -1.857,0.34 -2.865,1.019 l -0.633,-1.107 c 1.301,-0.832 2.555,-1.248 3.762,-1.248 1.125,0 1.957,0.346 2.496,1.037 0.539,0.692 0.808,1.652 0.808,2.883 V 117 h -1.318 l -0.141,-1.143 h -0.052 c -1.102,0.914 -2.157,1.372 -3.164,1.372 z m 0.457,-1.284 c 0.797,0 1.67,-0.422 2.619,-1.265 v -2.672 c -1.559,0.187 -2.666,0.474 -3.322,0.861 -0.657,0.387 -0.985,0.902 -0.985,1.547 0,0.516 0.158,0.896 0.475,1.143 0.304,0.257 0.709,0.386 1.213,0.386 z m 8.947,1.284 c -1.125,0 -1.688,-0.709 -1.688,-2.127 v -12.094 h 1.6 v 12.199 c 0,0.457 0.152,0.686 0.457,0.686 0.106,0 0.217,-0.012 0.334,-0.036 l 0.229,1.231 c -0.246,0.094 -0.557,0.141 -0.932,0.141 z m 4.639,-12.883 c -0.108,0.42 -0.246,0.876 -0.414,1.368 -0.168,0.492 -0.354,0.984 -0.558,1.476 -0.192,0.48 -0.384,0.936 -0.576,1.368 h -1.17 c 0.084,-0.336 0.168,-0.696 0.252,-1.08 0.096,-0.384 0.18,-0.768 0.252,-1.152 0.084,-0.396 0.156,-0.78 0.216,-1.152 a 27.2,27.2 0 0 0 0.18,-1.026 h 1.692 z m 4.326,12.883 c -1.313,0 -2.502,-0.44 -3.569,-1.319 l 0.791,-1.055 c 0.926,0.75 1.87,1.125 2.831,1.125 0.609,0 1.078,-0.14 1.406,-0.421 0.316,-0.282 0.474,-0.639 0.474,-1.073 0,-0.304 -0.123,-0.58 -0.369,-0.826 a 2.713,2.713 0 0 0 -0.738,-0.545 14.823,14.823 0 0 0 -1.072,-0.439 c -0.41,-0.153 -0.75,-0.293 -1.02,-0.422 a 5.193,5.193 0 0 1 -0.879,-0.527 2.007,2.007 0 0 1 -0.703,-0.774 2.153,2.153 0 0 1 -0.246,-1.037 c 0,-0.785 0.299,-1.436 0.897,-1.951 0.585,-0.504 1.382,-0.756 2.39,-0.756 1.055,0 2.045,0.357 2.971,1.072 l -0.774,1.037 c -0.761,-0.562 -1.494,-0.843 -2.197,-0.843 -0.562,0 -0.99,0.129 -1.283,0.386 a 1.233,1.233 0 0 0 -0.457,0.985 c 0,0.269 0.111,0.509 0.334,0.72 0.211,0.223 0.416,0.375 0.615,0.457 0.188,0.094 0.516,0.229 0.985,0.405 0.082,0.035 0.14,0.058 0.175,0.07 0.387,0.141 0.674,0.252 0.862,0.334 0.187,0.082 0.439,0.211 0.755,0.387 0.305,0.176 0.534,0.351 0.686,0.527 0.152,0.176 0.293,0.404 0.422,0.686 0.129,0.293 0.193,0.615 0.193,0.966 0,0.809 -0.304,1.483 -0.914,2.022 -0.621,0.539 -1.476,0.809 -2.566,0.809 z M 43.813,183.012 c -5.977,0 -10.997,-2.129 -15.06,-6.387 l 3.224,-3.691 c 3.437,3.554 7.402,5.332 11.894,5.332 2.773,0 4.98,-0.645 6.621,-1.934 1.602,-1.25 2.403,-2.949 2.403,-5.098 0,-1.054 -0.157,-1.972 -0.47,-2.754 -0.312,-0.781 -0.859,-1.484 -1.64,-2.109 a 24.34,24.34 0 0 0 -2.168,-1.406 92.744,92.744 0 0 0 -2.87,-1.348 l -6.212,-2.695 c -5.82,-2.5 -8.73,-6.172 -8.73,-11.016 0,-3.32 1.289,-6.054 3.867,-8.203 2.539,-2.148 5.762,-3.223 9.668,-3.223 5,0 9.219,1.778 12.656,5.332 l -2.871,3.458 c -2.89,-2.696 -6.152,-4.043 -9.785,-4.043 -2.422,0 -4.356,0.566 -5.8,1.699 -1.485,1.172 -2.227,2.715 -2.227,4.629 0,0.781 0.156,1.504 0.468,2.168 0.313,0.703 0.664,1.269 1.055,1.699 0.352,0.469 0.918,0.918 1.7,1.348 0.741,0.468 1.347,0.8 1.816,0.996 0.43,0.234 1.113,0.546 2.05,0.937 l 6.153,2.637 c 2.851,1.25 5.039,2.734 6.562,4.453 1.524,1.719 2.285,4.062 2.285,7.031 0,3.477 -1.328,6.367 -3.984,8.672 -2.695,2.344 -6.23,3.516 -10.605,3.516 z m 31.816,0 c -6.445,0 -9.668,-4.141 -9.668,-12.422 v -20.156 h 5.332 v 19.511 c 0,2.969 0.469,5.117 1.406,6.446 0.938,1.328 2.461,1.992 4.57,1.992 1.602,0 3.047,-0.41 4.337,-1.231 1.288,-0.82 2.714,-2.207 4.277,-4.16 v -22.558 h 5.332 v 31.816 h -4.453 l -0.41,-4.98 h -0.176 c -3.32,3.828 -6.836,5.742 -10.547,5.742 z m 30.703,-32.578 0.469,4.57 h 0.176 c 3.671,-3.594 7.226,-5.391 10.664,-5.391 6.484,0 9.726,4.16 9.726,12.481 v 20.156 h -5.332 v -19.453 c 0,-2.969 -0.469,-5.137 -1.406,-6.504 -0.977,-1.328 -2.52,-1.992 -4.629,-1.992 -1.562,0 -2.969,0.371 -4.219,1.113 -1.25,0.742 -2.754,1.992 -4.511,3.75 v 23.086 h -5.332 v -31.816 z m 35.801,0 0.469,5.8 h 0.175 c 1.133,-2.07 2.481,-3.691 4.043,-4.863 1.563,-1.172 3.223,-1.758 4.981,-1.758 1.367,0 2.5,0.235 3.398,0.703 l -0.996,4.688 c -0.898,-0.352 -1.933,-0.527 -3.105,-0.527 -1.485,0 -2.95,0.585 -4.395,1.757 -1.445,1.172 -2.656,3.028 -3.633,5.567 v 20.449 h -5.332 v -31.816 z m 21.035,-6.563 c -1.055,0 -1.934,-0.332 -2.637,-0.996 -0.703,-0.664 -1.054,-1.484 -1.054,-2.461 0,-1.055 0.351,-1.894 1.054,-2.519 0.664,-0.625 1.543,-0.938 2.637,-0.938 1.094,0 1.992,0.313 2.695,0.938 0.664,0.625 0.996,1.464 0.996,2.519 0,0.977 -0.351,1.797 -1.054,2.461 -0.703,0.664 -1.582,0.996 -2.637,0.996 z m 2.637,6.563 v 31.816 h -5.332 v -31.816 z m 19.101,32.578 c -4.375,0 -8.34,-1.465 -11.894,-4.395 l 2.636,-3.515 c 3.086,2.5 6.231,3.75 9.434,3.75 2.031,0 3.594,-0.469 4.688,-1.407 1.054,-0.937 1.582,-2.129 1.582,-3.574 0,-1.016 -0.411,-1.933 -1.231,-2.754 -0.82,-0.82 -1.641,-1.426 -2.461,-1.816 -0.82,-0.391 -2.012,-0.879 -3.574,-1.465 -1.367,-0.508 -2.5,-0.977 -3.398,-1.406 -0.938,-0.43 -1.915,-1.016 -2.93,-1.758 -1.055,-0.703 -1.836,-1.563 -2.344,-2.578 -0.547,-1.016 -0.82,-2.168 -0.82,-3.457 0,-2.617 0.996,-4.785 2.988,-6.504 1.953,-1.68 4.609,-2.52 7.969,-2.52 3.515,0 6.816,1.192 9.902,3.575 l -2.578,3.457 c -2.539,-1.875 -4.98,-2.813 -7.324,-2.813 -1.875,0 -3.301,0.43 -4.278,1.289 -1.015,0.859 -1.523,1.953 -1.523,3.281 0,0.899 0.371,1.7 1.113,2.403 0.703,0.742 1.387,1.25 2.051,1.523 0.625,0.313 1.719,0.762 3.281,1.348 0.274,0.117 0.469,0.195 0.586,0.234 1.289,0.469 2.246,0.84 2.871,1.113 0.625,0.274 1.465,0.704 2.52,1.289 1.016,0.586 1.777,1.172 2.285,1.758 0.508,0.586 0.977,1.348 1.406,2.285 0.43,0.977 0.645,2.051 0.645,3.223 0,2.695 -1.016,4.942 -3.047,6.738 -2.07,1.797 -4.922,2.696 -8.555,2.696 z m 31.934,0 c -4.375,0 -8.008,-1.504 -10.899,-4.512 -2.89,-3.008 -4.336,-7.051 -4.336,-12.129 0,-4.961 1.426,-9.004 4.278,-12.129 2.851,-3.086 6.211,-4.629 10.078,-4.629 3.984,0 7.09,1.328 9.316,3.985 2.227,2.695 3.34,6.347 3.34,10.957 0,1.015 -0.078,2.031 -0.234,3.047 h -21.445 c 0.156,3.398 1.21,6.093 3.164,8.086 1.914,2.031 4.375,3.046 7.382,3.046 2.813,0 5.469,-0.839 7.969,-2.519 l 1.934,3.515 c -3.399,2.188 -6.914,3.282 -10.547,3.282 z m 7.09,-19.219 c 0,-3.203 -0.684,-5.664 -2.051,-7.383 -1.406,-1.68 -3.359,-2.519 -5.859,-2.519 -2.344,0 -4.375,0.879 -6.094,2.636 -1.719,1.797 -2.735,4.219 -3.047,7.266 z M 56.644,209.301 v 4.57 H 37.31 v 13.477 h 16.289 v 4.629 h -16.29 v 15.644 H 57.29 v 4.629 H 31.86 v -42.949 h 24.785 z m 13.594,11.133 0.469,4.57 h 0.176 c 3.672,-3.594 7.226,-5.391 10.664,-5.391 6.484,0 9.726,4.16 9.726,12.481 v 20.156 h -5.332 v -19.453 c 0,-2.969 -0.468,-5.137 -1.406,-6.504 -0.976,-1.328 -2.52,-1.992 -4.629,-1.992 -1.562,0 -2.969,0.371 -4.219,1.113 -1.25,0.742 -2.753,1.992 -4.511,3.75 v 23.086 h -5.332 v -31.816 z m 42.129,46.464 c -3.984,0 -7.168,-0.761 -9.551,-2.285 -2.421,-1.484 -3.632,-3.574 -3.632,-6.269 0,-2.774 1.582,-5.176 4.746,-7.207 v -0.235 c -1.953,-1.132 -2.93,-2.871 -2.93,-5.214 0,-2.227 1.191,-4.2 3.574,-5.918 v -0.235 c -2.773,-2.226 -4.16,-5.078 -4.16,-8.555 0,-3.398 1.172,-6.152 3.516,-8.261 2.304,-2.071 5.117,-3.106 8.437,-3.106 1.485,0 2.969,0.274 4.453,0.821 h 11.075 v 4.101 h -6.504 c 1.718,1.641 2.578,3.828 2.578,6.563 0,3.32 -1.094,5.996 -3.281,8.027 -2.227,2.031 -5,3.047 -8.321,3.047 -1.679,0 -3.262,-0.371 -4.746,-1.113 -1.367,1.171 -2.051,2.441 -2.051,3.808 0,2.305 1.856,3.457 5.567,3.457 h 6.211 c 7.382,0 11.074,2.52 11.074,7.559 0,3.047 -1.484,5.644 -4.453,7.793 -2.969,2.148 -6.836,3.222 -11.602,3.222 z m 0,-28.359 c 1.875,0 3.477,-0.703 4.805,-2.109 1.289,-1.368 1.933,-3.184 1.933,-5.45 0,-2.265 -0.644,-4.082 -1.933,-5.449 -1.289,-1.328 -2.891,-1.992 -4.805,-1.992 -1.953,0 -3.574,0.664 -4.863,1.992 -1.289,1.367 -1.934,3.184 -1.934,5.449 0,2.266 0.664,4.082 1.992,5.45 1.29,1.406 2.891,2.109 4.805,2.109 z m 0.762,24.727 c 2.93,0 5.351,-0.664 7.266,-1.993 1.914,-1.289 2.871,-2.812 2.871,-4.57 0,-1.406 -0.528,-2.422 -1.582,-3.047 -1.094,-0.586 -2.735,-0.879 -4.922,-0.879 h -5.508 a 16.87,16.87 0 0 1 -4.102,-0.527 c -2.187,1.562 -3.281,3.359 -3.281,5.391 0,1.718 0.82,3.086 2.461,4.101 1.641,1.016 3.906,1.524 6.797,1.524 z m 27.129,-10.254 c -3.75,0 -5.625,-2.364 -5.625,-7.09 v -40.313 h 5.332 v 40.664 c 0,1.524 0.508,2.286 1.523,2.286 0.352,0 0.723,-0.039 1.114,-0.118 l 0.761,4.102 c -0.82,0.312 -1.855,0.469 -3.105,0.469 z m 13.769,-39.141 c -1.054,0 -1.933,-0.332 -2.636,-0.996 -0.703,-0.664 -1.055,-1.484 -1.055,-2.461 0,-1.055 0.352,-1.894 1.055,-2.519 0.664,-0.625 1.543,-0.938 2.636,-0.938 1.094,0 1.993,0.313 2.696,0.938 0.664,0.625 0.996,1.464 0.996,2.519 0,0.977 -0.352,1.797 -1.055,2.461 -0.703,0.664 -1.582,0.996 -2.637,0.996 z m 2.637,6.563 v 31.816 h -5.332 v -31.816 z m 19.102,32.578 c -4.375,0 -8.34,-1.465 -11.895,-4.395 l 2.637,-3.515 c 3.086,2.5 6.23,3.75 9.433,3.75 2.032,0 3.594,-0.469 4.688,-1.407 1.055,-0.937 1.582,-2.129 1.582,-3.574 0,-1.016 -0.41,-1.933 -1.231,-2.754 -0.82,-0.82 -1.64,-1.426 -2.46,-1.816 -0.821,-0.391 -2.012,-0.879 -3.575,-1.465 -1.367,-0.508 -2.5,-0.977 -3.398,-1.406 -0.938,-0.43 -1.914,-1.016 -2.93,-1.758 -1.055,-0.703 -1.836,-1.563 -2.344,-2.578 -0.546,-1.016 -0.82,-2.168 -0.82,-3.457 0,-2.617 0.996,-4.785 2.988,-6.504 1.954,-1.68 4.61,-2.52 7.969,-2.52 3.516,0 6.817,1.192 9.902,3.575 l -2.578,3.457 c -2.539,-1.875 -4.98,-2.813 -7.324,-2.813 -1.875,0 -3.301,0.43 -4.277,1.289 -1.016,0.859 -1.524,1.953 -1.524,3.281 0,0.899 0.371,1.7 1.114,2.403 0.703,0.742 1.386,1.25 2.05,1.523 0.625,0.313 1.719,0.762 3.282,1.348 0.273,0.117 0.468,0.195 0.586,0.234 1.289,0.469 2.246,0.84 2.871,1.113 0.625,0.274 1.465,0.704 2.519,1.289 1.016,0.586 1.778,1.172 2.285,1.758 0.508,0.586 0.977,1.348 1.407,2.285 0.429,0.977 0.644,2.051 0.644,3.223 0,2.695 -1.015,4.942 -3.047,6.738 -2.07,1.797 -4.922,2.696 -8.554,2.696 z m 24.433,-47.403 v 12.774 l -0.176,6.562 c 3.555,-3.554 7.071,-5.332 10.547,-5.332 6.485,0 9.727,4.16 9.727,12.481 v 20.156 h -5.332 v -19.453 c 0,-2.969 -0.469,-5.137 -1.406,-6.504 -0.977,-1.328 -2.52,-1.992 -4.629,-1.992 -1.563,0 -2.969,0.371 -4.219,1.113 -1.25,0.742 -2.754,1.992 -4.512,3.75 v 23.086 h -5.332 V 205.609 Z M 43.812,323.012 c -5.976,0 -10.996,-2.129 -15.058,-6.387 l 3.223,-3.691 c 3.437,3.554 7.402,5.332 11.894,5.332 2.773,0 4.98,-0.645 6.621,-1.934 1.602,-1.25 2.403,-2.949 2.403,-5.098 0,-1.054 -0.157,-1.972 -0.47,-2.754 -0.312,-0.781 -0.859,-1.484 -1.64,-2.109 a 24.34,24.34 0 0 0 -2.168,-1.406 92.744,92.744 0 0 0 -2.87,-1.348 l -6.212,-2.695 c -5.82,-2.5 -8.73,-6.172 -8.73,-11.016 0,-3.32 1.289,-6.054 3.867,-8.203 2.539,-2.148 5.762,-3.223 9.668,-3.223 5,0 9.219,1.778 12.656,5.332 l -2.871,3.458 c -2.89,-2.696 -6.152,-4.043 -9.785,-4.043 -2.422,0 -4.356,0.566 -5.8,1.699 -1.485,1.172 -2.227,2.715 -2.227,4.629 0,0.781 0.156,1.504 0.468,2.168 0.313,0.703 0.664,1.269 1.055,1.699 0.352,0.469 0.918,0.918 1.7,1.348 0.741,0.468 1.347,0.8 1.816,0.996 0.43,0.234 1.113,0.546 2.05,0.937 l 6.153,2.637 c 2.851,1.25 5.039,2.734 6.562,4.453 1.524,1.719 2.285,4.062 2.285,7.031 0,3.477 -1.328,6.367 -3.984,8.672 -2.695,2.344 -6.23,3.516 -10.605,3.516 z m 35.098,0 c -4.336,0 -7.91,-1.485 -10.722,-4.453 -2.813,-2.969 -4.22,-7.032 -4.22,-12.188 0,-5.117 1.505,-9.199 4.513,-12.246 2.968,-3.008 6.582,-4.512 10.84,-4.512 3.359,0 6.464,1.25 9.316,3.75 l -2.754,3.575 c -2.11,-1.915 -4.239,-2.872 -6.387,-2.872 -2.89,0 -5.273,1.133 -7.148,3.399 -1.875,2.305 -2.813,5.273 -2.813,8.906 0,3.672 0.918,6.621 2.754,8.848 1.797,2.226 4.16,3.34 7.09,3.34 2.695,0 5.195,-1.055 7.5,-3.164 l 2.285,3.574 c -2.93,2.695 -6.348,4.043 -10.254,4.043 z m 22.617,-47.403 v 12.774 l -0.175,6.562 c 3.554,-3.554 7.07,-5.332 10.546,-5.332 6.485,0 9.727,4.16 9.727,12.481 v 20.156 h -5.332 v -19.453 c 0,-2.969 -0.469,-5.137 -1.406,-6.504 -0.977,-1.328 -2.52,-1.992 -4.629,-1.992 -1.563,0 -2.969,0.371 -4.219,1.113 -1.25,0.742 -2.754,1.992 -4.512,3.75 v 23.086 h -5.332 v -46.641 z m 42.598,47.403 c -4.102,0 -7.578,-1.504 -10.43,-4.512 -2.89,-3.008 -4.336,-7.051 -4.336,-12.129 0,-5.117 1.446,-9.199 4.336,-12.246 2.852,-3.008 6.328,-4.512 10.43,-4.512 4.102,0 7.598,1.504 10.488,4.512 2.852,3.047 4.278,7.129 4.278,12.246 0,5.078 -1.426,9.121 -4.278,12.129 -2.89,3.008 -6.386,4.512 -10.488,4.512 z m 0,-4.453 c 2.773,0 5.02,-1.114 6.738,-3.34 1.68,-2.227 2.52,-5.176 2.52,-8.848 0,-3.672 -0.84,-6.641 -2.52,-8.906 -1.718,-2.266 -3.965,-3.399 -6.738,-3.399 -2.734,0 -4.941,1.133 -6.621,3.399 -1.719,2.265 -2.578,5.234 -2.578,8.906 0,3.672 0.84,6.621 2.519,8.848 1.68,2.226 3.907,3.34 6.68,3.34 z m 88.77,4.453 c -3.75,0 -5.625,-2.364 -5.625,-7.09 v -40.313 h 5.332 v 40.664 c 0,1.524 0.507,2.286 1.523,2.286 a 5.61,5.61 0 0 0 1.113,-0.118 l 0.762,4.102 c -0.82,0.312 -1.855,0.469 -3.105,0.469 z"
     id="path898" />
  <g
     clip-path="url(#clip0_27_21)"
     id="g914">
    <g
       style="mix-blend-mode:darken"
       id="g904">
      <path
         fill="#ffe064"
         d="m 217.46,321.1 h -6.891 l -0.876,6.835 -6.553,-2.13 -2.945,6.23 -5.575,-4.05 -4.726,5.015 -4.05,-5.575 -6.044,3.309 -2.129,-6.554 -6.771,1.28 v -6.891 l -6.835,-0.876 2.13,-6.553 -6.231,-2.945 4.051,-5.575 -5.015,-4.726 5.575,-4.05 -3.309,-6.044 6.554,-2.129 -1.28,-6.771 h 6.891 l 0.876,-6.835 6.553,2.13 2.945,-6.231 5.575,4.051 4.726,-5.015 4.05,5.575 6.044,-3.309 2.129,6.554 6.771,-1.28 v 6.891 l 6.835,0.876 -2.13,6.553 6.231,2.945 -4.051,5.575 5.015,4.726 -5.575,4.05 3.309,6.044 -6.554,2.129 z"
         id="path900" />
      <path
         stroke="#f8c700"
         stroke-width="0.5"
         d="m 217.46,321.1 h -6.891 l -0.876,6.835 -6.553,-2.13 -2.945,6.23 -5.575,-4.05 -4.726,5.015 -4.05,-5.575 -6.044,3.309 -2.129,-6.554 -6.771,1.28 v -6.891 l -6.835,-0.876 2.13,-6.553 -6.231,-2.945 4.051,-5.575 -5.015,-4.726 5.575,-4.05 -3.309,-6.044 6.554,-2.129 -1.28,-6.771 h 6.891 l 0.876,-6.835 6.553,2.13 2.945,-6.231 5.575,4.051 4.726,-5.015 4.05,5.575 6.044,-3.309 2.129,6.554 6.771,-1.28 v 6.891 l 6.835,0.876 -2.13,6.553 6.231,2.945 -4.051,5.575 5.015,4.726 -5.575,4.05 3.309,6.044 -6.554,2.129 z"
         id="path902" />
    </g>
    <path
       fill="#f9c700"
       d="m 192,324.793 c 13.693,0 24.793,-11.1 24.793,-24.793 0,-13.693 -11.1,-24.793 -24.793,-24.793 -13.693,0 -24.793,11.1 -24.793,24.793 0,13.693 11.1,24.793 24.793,24.793 z"
       id="path906" />
    <path
       fill="#554400"
       d="m 184.634,295.321 c 1.003,0 1.816,-1.17 1.816,-2.614 0,-1.444 -0.813,-2.614 -1.816,-2.614 -1.002,0 -1.815,1.17 -1.815,2.614 0,1.444 0.813,2.614 1.815,2.614 z m 14.887,-0.29 c 1.003,0 1.815,-1.171 1.815,-2.615 0,-1.443 -0.812,-2.614 -1.815,-2.614 -1.003,0 -1.816,1.171 -1.816,2.614 0,1.444 0.813,2.615 1.816,2.615 z"
       id="path908" />
    <path
       stroke="#554400"
       stroke-linecap="round"
       stroke-width="1.5"
       d="m 178.718,303.971 c 2.704,3.789 7.092,6.326 11.725,6.778 a 16.443,16.443 0 0 0 8.531,-1.469 16.454,16.454 0 0 0 6.588,-5.617"
       id="path910" />
    <path
       stroke="#554400"
       stroke-linecap="round"
       d="m 204.656,301.488 c 0.037,0.868 0.482,1.71 1.179,2.228 0.635,0.472 1.467,0.67 2.247,0.535 m -28.576,-2.658 a 2.971,2.971 0 0 1 -1.178,2.228 2.968,2.968 0 0 1 -2.247,0.535"
       id="path912" />
  </g>
  <defs
     id="defs934">
    <linearGradient
       id="paint0_linear_27_21"
       x1="180"
       x2="180"
       y1="0"
       y2="385"
       gradientUnits="userSpaceOnUse">
      <stop
         stop-color="#71A2E0"
         id="stop916" />
      <stop
         offset="1"
         stop-color="#EAF0FF"
         stop-opacity="0"
         id="stop918" />
    </linearGradient>
    <linearGradient
       id="paint1_linear_27_21"
       x1="318.31201"
       x2="318.31299"
       y1="52.056999"
       y2="164.48199"
       gradientUnits="userSpaceOnUse">
      <stop
         stop-color="#fff"
         id="stop921" />
      <stop
         offset="1"
         stop-color="#fff"
         stop-opacity="0"
         id="stop923" />
    </linearGradient>
    <linearGradient
       id="paint2_linear_27_21"
       x1="115.438"
       x2="116.357"
       y1="10.467"
       y2="113.06"
       gradientUnits="userSpaceOnUse">
      <stop
         stop-color="#fff"
         id="stop926" />
      <stop
         offset="1"
         stop-color="#fff"
         stop-opacity="0"
         id="stop928" />
    </linearGradient>
    <clipPath
       id="clip0_27_21">
      <path
         fill="#ffffff"
         d="M 0,0 H 66 V 66 H 0 Z"
         transform="translate(159,267)"
         id="path931" />
    </clipPath>
  </defs>
</svg>
