<?xml version="1.0" encoding="UTF-8" standalone="no"?>
<!-- Created with Inkscape (http://www.inkscape.org/) -->

<svg
   width="210mm"
   height="297mm"
   viewBox="0 0 210 297"
   version="1.1"
   id="svg5"
   inkscape:version="1.1.2 (b8e25be833, 2022-02-05)"
   sodipodi:docname="teacher.svg"
   xmlns:inkscape="http://www.inkscape.org/namespaces/inkscape"
   xmlns:sodipodi="http://sodipodi.sourceforge.net/DTD/sodipodi-0.dtd"
   xmlns="http://www.w3.org/2000/svg"
   xmlns:svg="http://www.w3.org/2000/svg">
  <sodipodi:namedview
     id="namedview7"
     pagecolor="#ffffff"
     bordercolor="#8f8f8f"
     borderopacity="1"
     inkscape:pageshadow="0"
     inkscape:pageopacity="0"
     inkscape:pagecheckerboard="false"
     inkscape:document-units="mm"
     showgrid="false"
     showguides="false"
     inkscape:guide-bbox="true"
     inkscape:snap-object-midpoints="true"
     inkscape:snap-center="true"
     inkscape:snap-intersection-paths="true"
     inkscape:object-paths="true"
     inkscape:zoom="3.8601999"
     inkscape:cx="349.07519"
     inkscape:cy="496.47688"
     inkscape:window-width="1920"
     inkscape:window-height="1001"
     inkscape:window-x="-9"
     inkscape:window-y="-9"
     inkscape:window-maximized="1"
     inkscape:current-layer="layer1" />
  <defs
     id="defs2">
    <inkscape:path-effect
       effect="bspline"
       id="path-effect11043"
       is_visible="true"
       lpeversion="1"
       weight="33.333333"
       steps="2"
       helper_size="0"
       apply_no_weight="true"
       apply_with_weight="true"
       only_selected="false" />
    <inkscape:path-effect
       effect="spiro"
       id="path-effect5372"
       is_visible="true"
       lpeversion="1" />
    <inkscape:path-effect
       effect="skeletal"
       id="path-effect5060"
       is_visible="true"
       lpeversion="1"
       pattern="M 0,4.9921382 C 0,2.2364779 2.2364779,0 4.9921382,0 c 2.7556604,0 4.9921383,2.2364779 4.9921383,4.9921382 0,2.7556604 -2.2364779,4.9921383 -4.9921383,4.9921383 C 2.2364779,9.9842765 0,7.7477986 0,4.9921382 Z"
       copytype="single_stretched"
       prop_scale="1"
       scale_y_rel="false"
       spacing="0"
       normal_offset="0"
       tang_offset="0"
       prop_units="false"
       vertical_pattern="false"
       hide_knot="false"
       fuse_tolerance="0" />
    <inkscape:path-effect
       effect="spiro"
       id="path-effect5058"
       is_visible="true"
       lpeversion="1" />
  </defs>
  <g
     inkscape:label="Layer 1"
     inkscape:groupmode="layer"
     id="layer1">
    <ellipse
       style="fill:#000000;fill-opacity:1;stroke:#000000;stroke-width:1;stroke-linecap:round;stroke-miterlimit:4;stroke-dasharray:none;stroke-opacity:1"
       id="path3965"
       cx="104.88055"
       cy="109.53329"
       rx="11.919651"
       ry="11.91965" />
    <path
       id="path846"
       style="fill:#ffd69a;fill-opacity:1;stroke:#000000;stroke-width:3.77952761;stroke-linecap:round;stroke-miterlimit:4;stroke-dasharray:none;stroke-opacity:1"
       d="M 404.08398 392.5332 A 74.850472 32.892958 0 0 1 351.29883 408.83984 A 45.42834 45.42834 0 0 0 350.9707 413.98438 A 45.42834 45.42834 0 0 0 396.39844 459.41211 A 45.42834 45.42834 0 0 0 441.82812 413.98438 A 45.42834 45.42834 0 0 0 441.45508 408.39648 A 60.206783 32.366761 0 0 1 404.08398 392.5332 z "
       transform="scale(0.26458333)" />
    <ellipse
       style="fill:#000000;fill-opacity:1;stroke:#000000;stroke-width:1;stroke-linecap:round;stroke-miterlimit:4;stroke-dasharray:none;stroke-opacity:1"
       id="path4071"
       cx="104.88055"
       cy="96.197792"
       rx="3.5984211"
       ry="2.433218" />
    <ellipse
       style="fill:#ff5f2a;fill-opacity:1;stroke:#000000;stroke-width:0;stroke-linecap:round;stroke-miterlimit:4;stroke-dasharray:none;stroke-opacity:1"
       id="path4609"
       cx="104.88055"
       cy="108.69157"
       rx="0.39999941"
       ry="0.39999932" />
    <path
       style="display:inline;fill:none;stroke:#000000;stroke-width:1;stroke-linecap:butt;stroke-linejoin:miter;stroke-miterlimit:4;stroke-dasharray:none;stroke-opacity:1"
       d="m 83.749342,138.90372 c 1.287684,-4.56357 4.099575,-8.68287 7.880458,-11.54455 3.780884,-2.86167 8.50899,-4.44924 13.25075,-4.44924 4.74175,0 9.46986,1.58758 13.25074,4.44925 3.78088,2.86168 6.59277,6.98098 7.88045,11.54454"
       id="path5370"
       inkscape:path-effect="#path-effect5372"
       inkscape:original-d="m 83.749342,138.90372 c 7.043999,-5.331 14.087734,-10.66226 21.131208,-15.99379 7.04347,-5.33153 14.08773,10.66279 21.13119,15.99379" />
    <path
       style="display:inline;fill:none;stroke:#000000;stroke-width:1;stroke-linecap:butt;stroke-linejoin:miter;stroke-miterlimit:4;stroke-dasharray:none;stroke-opacity:1"
       d="m 83.732356,138.91769 v 15.62195 0 h 42.296384 v 0 l -1e-5,-15.62195"
       id="path5567" />
    <path
       style="display:inline;fill:none;stroke:#000000;stroke-width:1;stroke-linecap:butt;stroke-linejoin:miter;stroke-miterlimit:4;stroke-dasharray:none;stroke-opacity:1"
       d="m 114.67797,125.22448 c -3.26578,2.78264 -6.53159,5.5653 -11.68635,7.84517 -5.154762,2.27988 -12.198356,4.05693 -19.242278,5.83407"
       id="path11041"
       inkscape:path-effect="#path-effect11043"
       inkscape:original-d="m 114.67797,125.22448 c -3.26554,2.78292 -6.53135,5.56558 -9.79742,8.34797 -7.043614,1.77739 -14.087209,3.55444 -21.131208,5.33127" />
    <path
       style="display:inline;fill:#5c82ff;fill-opacity:1;stroke:#000000;stroke-width:0;stroke-linecap:round;stroke-miterlimit:4;stroke-dasharray:none;stroke-opacity:1"
       d="m 317.83179,523.06706 c 1.82357,-6.03381 6.10177,-14.92038 10.02101,-20.81539 3.57766,-5.38124 6.63757,-9.05539 11.44483,-13.74225 14.61163,-14.24569 33.7155,-22.39983 54.17043,-23.12165 9.16416,-0.32339 17.08726,0.65807 25.88591,3.20658 3.72821,1.07987 11.76732,4.15243 12.33352,4.71389 0.16579,0.16439 -2.09703,2.28914 -5.02847,4.72165 -25.75077,21.36801 -42.41396,28.77944 -95.65493,42.54533 -7.05238,1.82345 -12.95727,3.31554 -13.12197,3.31576 -0.1647,2.1e-4 -0.18735,-0.37055 -0.0503,-0.82392 z"
       id="path11162"
       transform="scale(0.26458333)" />
    <path
       style="fill:#ececec;fill-opacity:1;stroke:#000000;stroke-width:0;stroke-linecap:round;stroke-miterlimit:4;stroke-dasharray:none;stroke-opacity:1"
       d="m 316.98871,554.60949 0.0938,-28.99817 6.9608,-1.77859 c 39.52144,-10.09837 56.91141,-15.77044 72.35562,-23.60019 10.99006,-5.57162 19.52818,-11.36786 31.68994,-21.51322 l 5.49536,-4.58424 2.38132,1.29534 c 17.58427,9.56507 31.79181,26.57455 38.44654,46.02876 l 1.48644,4.34542 v 28.90153 28.90153 h -79.5018 -79.50181 z"
       id="path11238"
       transform="scale(0.26458333)" />
  </g>
</svg>
